<mxfile modified="2023-07-25T18:37:50.280Z" host="app.diagrams.net" agent="Mozilla/5.0 (Windows NT 10.0; Win64; x64) AppleWebKit/537.36 (KHTML, like Gecko) Chrome/114.0.0.0 Safari/537.36" etag="oyX-482DKFiPcBQYH6IW" version="21.6.5" type="github">
  <diagram id="Ht1M8jgEwFfnCIfOTk4-" name="Page-1">
    <mxGraphModel dx="832" dy="1340" grid="1" gridSize="10" guides="1" tooltips="1" connect="1" arrows="1" fold="1" page="1" pageScale="1" pageWidth="1169" pageHeight="827" math="0" shadow="0">
      <root>
        <mxCell id="0" />
        <mxCell id="1" parent="0" />
        <mxCell id="UEzPUAAOIrF-is8g5C7q-175" value="AWS Cloud" style="points=[[0,0],[0.25,0],[0.5,0],[0.75,0],[1,0],[1,0.25],[1,0.5],[1,0.75],[1,1],[0.75,1],[0.5,1],[0.25,1],[0,1],[0,0.75],[0,0.5],[0,0.25]];outlineConnect=0;gradientColor=none;html=1;whiteSpace=wrap;fontSize=12;fontStyle=0;shape=mxgraph.aws4.group;grIcon=mxgraph.aws4.group_aws_cloud_alt;strokeColor=#232F3E;fillColor=none;verticalAlign=top;align=left;spacingLeft=30;fontColor=#232F3E;dashed=0;labelBackgroundColor=#ffffff;container=1;pointerEvents=0;collapsible=0;recursiveResize=0;" parent="1" vertex="1">
          <mxGeometry x="200" y="-789.5" width="760" height="389.5" as="geometry" />
        </mxCell>
        <mxCell id="Fd9Dhdb4HW5ifCpGxpip-2" value="" style="sketch=0;points=[[0,0,0],[0.25,0,0],[0.5,0,0],[0.75,0,0],[1,0,0],[0,1,0],[0.25,1,0],[0.5,1,0],[0.75,1,0],[1,1,0],[0,0.25,0],[0,0.5,0],[0,0.75,0],[1,0.25,0],[1,0.5,0],[1,0.75,0]];outlineConnect=0;fontColor=#232F3E;gradientColor=#F78E04;gradientDirection=north;fillColor=#D05C17;strokeColor=#ffffff;dashed=0;verticalLabelPosition=bottom;verticalAlign=top;align=center;html=1;fontSize=12;fontStyle=0;aspect=fixed;shape=mxgraph.aws4.resourceIcon;resIcon=mxgraph.aws4.ec2;" vertex="1" parent="UEzPUAAOIrF-is8g5C7q-175">
          <mxGeometry x="114" y="230" width="78" height="78" as="geometry" />
        </mxCell>
        <mxCell id="Fd9Dhdb4HW5ifCpGxpip-7" value="&lt;font style=&quot;font-size: 14px;&quot;&gt;EC2 - Server 1&lt;/font&gt;" style="text;strokeColor=none;align=center;fillColor=none;html=1;verticalAlign=middle;whiteSpace=wrap;rounded=0;" vertex="1" parent="UEzPUAAOIrF-is8g5C7q-175">
          <mxGeometry x="117" y="319.5" width="60" height="30" as="geometry" />
        </mxCell>
        <mxCell id="Fd9Dhdb4HW5ifCpGxpip-8" value="&lt;font style=&quot;font-size: 14px;&quot;&gt;EC2 - Server 2&lt;/font&gt;" style="text;strokeColor=none;align=center;fillColor=none;html=1;verticalAlign=middle;whiteSpace=wrap;rounded=0;" vertex="1" parent="UEzPUAAOIrF-is8g5C7q-175">
          <mxGeometry x="346" y="319.5" width="60" height="30" as="geometry" />
        </mxCell>
        <mxCell id="Fd9Dhdb4HW5ifCpGxpip-9" value="" style="sketch=0;points=[[0,0,0],[0.25,0,0],[0.5,0,0],[0.75,0,0],[1,0,0],[0,1,0],[0.25,1,0],[0.5,1,0],[0.75,1,0],[1,1,0],[0,0.25,0],[0,0.5,0],[0,0.75,0],[1,0.25,0],[1,0.5,0],[1,0.75,0]];outlineConnect=0;fontColor=#232F3E;gradientColor=#F78E04;gradientDirection=north;fillColor=#D05C17;strokeColor=#ffffff;dashed=0;verticalLabelPosition=bottom;verticalAlign=top;align=center;html=1;fontSize=12;fontStyle=0;aspect=fixed;shape=mxgraph.aws4.resourceIcon;resIcon=mxgraph.aws4.elastic_load_balancing;" vertex="1" parent="UEzPUAAOIrF-is8g5C7q-175">
          <mxGeometry x="231" y="50.5" width="78" height="78" as="geometry" />
        </mxCell>
        <mxCell id="Fd9Dhdb4HW5ifCpGxpip-10" value="&lt;font style=&quot;font-size: 14px;&quot;&gt;Application Load Balancer&lt;/font&gt;" style="text;strokeColor=none;align=center;fillColor=none;html=1;verticalAlign=middle;whiteSpace=wrap;rounded=0;" vertex="1" parent="UEzPUAAOIrF-is8g5C7q-175">
          <mxGeometry x="234" y="146.5" width="72" height="30" as="geometry" />
        </mxCell>
        <mxCell id="Fd9Dhdb4HW5ifCpGxpip-19" style="edgeStyle=orthogonalEdgeStyle;rounded=0;orthogonalLoop=1;jettySize=auto;html=1;exitX=0;exitY=0.5;exitDx=0;exitDy=0;exitPerimeter=0;entryX=1.013;entryY=0.359;entryDx=0;entryDy=0;entryPerimeter=0;strokeWidth=2;strokeColor=#8F8F8F;" edge="1" parent="UEzPUAAOIrF-is8g5C7q-175" source="Fd9Dhdb4HW5ifCpGxpip-11" target="Fd9Dhdb4HW5ifCpGxpip-9">
          <mxGeometry relative="1" as="geometry" />
        </mxCell>
        <mxCell id="Fd9Dhdb4HW5ifCpGxpip-11" value="" style="sketch=0;points=[[0,0,0],[0.25,0,0],[0.5,0,0],[0.75,0,0],[1,0,0],[0,1,0],[0.25,1,0],[0.5,1,0],[0.75,1,0],[1,1,0],[0,0.25,0],[0,0.5,0],[0,0.75,0],[1,0.25,0],[1,0.5,0],[1,0.75,0]];outlineConnect=0;fontColor=#232F3E;gradientColor=#4D72F3;gradientDirection=north;fillColor=#3334B9;strokeColor=#ffffff;dashed=0;verticalLabelPosition=bottom;verticalAlign=top;align=center;html=1;fontSize=12;fontStyle=0;aspect=fixed;shape=mxgraph.aws4.resourceIcon;resIcon=mxgraph.aws4.rds;" vertex="1" parent="UEzPUAAOIrF-is8g5C7q-175">
          <mxGeometry x="510" y="39.5" width="78" height="78" as="geometry" />
        </mxCell>
        <mxCell id="Fd9Dhdb4HW5ifCpGxpip-12" value="&lt;font style=&quot;font-size: 14px;&quot;&gt;RDS&lt;/font&gt;" style="text;strokeColor=none;align=center;fillColor=none;html=1;verticalAlign=middle;whiteSpace=wrap;rounded=0;" vertex="1" parent="UEzPUAAOIrF-is8g5C7q-175">
          <mxGeometry x="523" y="124.5" width="60" height="30" as="geometry" />
        </mxCell>
        <mxCell id="UEzPUAAOIrF-is8g5C7q-198" style="edgeStyle=orthogonalEdgeStyle;rounded=0;orthogonalLoop=1;jettySize=auto;html=1;startArrow=none;startFill=0;endArrow=open;endFill=0;strokeColor=#808080;strokeWidth=2;" parent="1" source="Fd9Dhdb4HW5ifCpGxpip-9" edge="1">
          <mxGeometry relative="1" as="geometry">
            <Array as="points">
              <mxPoint x="355" y="-689" />
            </Array>
            <mxPoint x="420" y="-689" as="sourcePoint" />
            <mxPoint x="355" y="-569.5" as="targetPoint" />
          </mxGeometry>
        </mxCell>
        <mxCell id="UEzPUAAOIrF-is8g5C7q-200" style="edgeStyle=orthogonalEdgeStyle;rounded=0;orthogonalLoop=1;jettySize=auto;html=1;startArrow=none;startFill=0;endArrow=open;endFill=0;strokeColor=#808080;strokeWidth=2;" parent="1" source="Fd9Dhdb4HW5ifCpGxpip-9" edge="1">
          <mxGeometry relative="1" as="geometry">
            <Array as="points">
              <mxPoint x="576" y="-689" />
            </Array>
            <mxPoint x="528" y="-689.5" as="sourcePoint" />
            <mxPoint x="576" y="-569.4839600720788" as="targetPoint" />
          </mxGeometry>
        </mxCell>
        <mxCell id="UEzPUAAOIrF-is8g5C7q-177" value="Amazon S3&lt;br&gt;Bucket&lt;br&gt;" style="outlineConnect=0;fontColor=#232F3E;gradientColor=none;fillColor=#277116;strokeColor=none;dashed=0;verticalLabelPosition=bottom;verticalAlign=top;align=center;html=1;fontSize=12;fontStyle=0;aspect=fixed;pointerEvents=1;shape=mxgraph.aws4.bucket;labelBackgroundColor=#ffffff;" parent="1" vertex="1">
          <mxGeometry x="249" y="-749.5" width="75" height="78" as="geometry" />
        </mxCell>
        <mxCell id="Fd9Dhdb4HW5ifCpGxpip-3" value="&lt;div style=&quot;color: rgb(204, 204, 204); background-color: rgb(31, 31, 31); font-family: Consolas, &amp;quot;Courier New&amp;quot;, monospace; font-weight: normal; font-size: 14px; line-height: 19px;&quot;&gt;&lt;br&gt;&lt;/div&gt;" style="text;whiteSpace=wrap;html=1;" vertex="1" parent="1">
          <mxGeometry x="360" y="-560" width="330" height="40" as="geometry" />
        </mxCell>
        <mxCell id="Fd9Dhdb4HW5ifCpGxpip-6" value="" style="sketch=0;points=[[0,0,0],[0.25,0,0],[0.5,0,0],[0.75,0,0],[1,0,0],[0,1,0],[0.25,1,0],[0.5,1,0],[0.75,1,0],[1,1,0],[0,0.25,0],[0,0.5,0],[0,0.75,0],[1,0.25,0],[1,0.5,0],[1,0.75,0]];outlineConnect=0;fontColor=#232F3E;gradientColor=#F78E04;gradientDirection=north;fillColor=#D05C17;strokeColor=#ffffff;dashed=0;verticalLabelPosition=bottom;verticalAlign=top;align=center;html=1;fontSize=12;fontStyle=0;aspect=fixed;shape=mxgraph.aws4.resourceIcon;resIcon=mxgraph.aws4.ec2;" vertex="1" parent="1">
          <mxGeometry x="537" y="-559.5" width="78" height="78" as="geometry" />
        </mxCell>
        <mxCell id="Fd9Dhdb4HW5ifCpGxpip-20" style="edgeStyle=orthogonalEdgeStyle;rounded=0;orthogonalLoop=1;jettySize=auto;html=1;exitX=0.5;exitY=1;exitDx=0;exitDy=0;" edge="1" parent="1" source="UEzPUAAOIrF-is8g5C7q-175" target="UEzPUAAOIrF-is8g5C7q-175">
          <mxGeometry relative="1" as="geometry" />
        </mxCell>
      </root>
    </mxGraphModel>
  </diagram>
</mxfile>
